<?xml version='1.0' encoding='utf-8'?>
<svg xmlns="http://www.w3.org/2000/svg" width="484.0" height="372.0" viewBox="0 0 484.0 372.0">
  <style>
            .room-label { font-family: Arial, sans-serif; font-size: 11px; font-weight: bold; }
            .room-area { font-family: Arial, sans-serif; font-size: 9px; fill: #666; }
            .title { font-family: Arial, sans-serif; font-size: 16px; font-weight: bold; }
            .subtitle { font-family: Arial, sans-serif; font-size: 11px; fill: #666; }
        </style>
  <g transform="translate(50.0, 50.0)">
    <rect x="0.0" y="0.0" width="144.0" height="128.0" fill="#E8F4F8" stroke="#2C3E50" stroke-width="3" />
    <text x="72.0" y="61.0" text-anchor="middle" class="room-label">Living Area</text>
    <text x="72.0" y="74.0" text-anchor="middle" class="room-area">18' x 16'</text>
    <rect x="240.0" y="0.0" width="80.0" height="80.0" fill="#FFF8DC" stroke="#2C3E50" stroke-width="3" />
    <text x="280.0" y="37.0" text-anchor="middle" class="room-label">Kitchen</text>
    <text x="280.0" y="50.0" text-anchor="middle" class="room-area">10' x 10'</text>
    <rect x="120.0" y="0.0" width="48.0" height="48.0" fill="#FFFACD" stroke="#2C3E50" stroke-width="3" />
    <text x="144.0" y="21.0" text-anchor="middle" class="room-label">Entry</text>
    <text x="144.0" y="34.0" text-anchor="middle" class="room-area">6' x 6'</text>
    <rect x="0.0" y="112.0" width="128.0" height="96.0" fill="#D8BFD8" stroke="#2C3E50" stroke-width="3" />
    <text x="64.0" y="157.0" text-anchor="middle" class="room-label">Master Bedroom</text>
    <text x="64.0" y="170.0" text-anchor="middle" class="room-area">16' x 12'</text>
    <rect x="120.0" y="40.0" width="112.0" height="96.0" fill="#E6E6FA" stroke="#2C3E50" stroke-width="3" />
    <text x="176.0" y="85.0" text-anchor="middle" class="room-label">Bedroom 2</text>
    <text x="176.0" y="98.0" text-anchor="middle" class="room-area">14' x 12'</text>
    <rect x="240.0" y="80.0" width="112.0" height="96.0" fill="#E6E6FA" stroke="#2C3E50" stroke-width="3" />
    <text x="296.0" y="125.0" text-anchor="middle" class="room-label">Bedroom 3</text>
    <text x="296.0" y="138.0" text-anchor="middle" class="room-area">14' x 12'</text>
    <rect x="0.0" y="208.0" width="64.0" height="64.0" fill="#B0E0E6" stroke="#2C3E50" stroke-width="3" />
    <text x="32.0" y="237.0" text-anchor="middle" class="room-label">Master Bath</text>
    <text x="32.0" y="250.0" text-anchor="middle" class="room-area">8' x 8'</text>
    <rect x="160.0" y="0.0" width="64.0" height="64.0" fill="#E0FFFF" stroke="#2C3E50" stroke-width="3" />
    <text x="192.0" y="29.0" text-anchor="middle" class="room-label">Bath 2</text>
    <text x="192.0" y="42.0" text-anchor="middle" class="room-area">8' x 8'</text>
    <rect x="320.0" y="120.0" width="64.0" height="64.0" fill="#E0FFFF" stroke="#2C3E50" stroke-width="3" />
    <text x="352.0" y="149.0" text-anchor="middle" class="room-label">Bath 3</text>
    <text x="352.0" y="162.0" text-anchor="middle" class="room-area">8' x 8'</text>
    <rect x="56.0" y="-2.0" width="32.0" height="4" fill="#87CEEB" />
    <rect x="-2.0" y="48.0" width="4" height="32.0" fill="#87CEEB" />
    <line x1="268.0" y1="80.0" x2="292.0" y2="80.0" stroke="white" stroke-width="5" />
    <rect x="264.0" y="-2.0" width="32.0" height="4" fill="#87CEEB" />
    <rect x="128.0" y="-2.0" width="32.0" height="4" fill="#87CEEB" />
    <line x1="20.0" y1="208.0" x2="44.0" y2="208.0" stroke="white" stroke-width="5" />
    <rect x="-2.0" y="144.0" width="4" height="32.0" fill="#87CEEB" />
    <line x1="284.0" y1="80.0" x2="308.0" y2="80.0" stroke="white" stroke-width="5" />
    <line x1="36.0" y1="208.0" x2="60.0" y2="208.0" stroke="white" stroke-width="5" />
    <rect x="16.0" y="270.0" width="32.0" height="4" fill="#87CEEB" />
    <rect x="-2.0" y="224.0" width="4" height="32.0" fill="#87CEEB" />
    <rect x="176.0" y="-2.0" width="32.0" height="4" fill="#87CEEB" />
    <rect x="382.0" y="136.0" width="4" height="32.0" fill="#87CEEB" />
  </g>
  <text x="242.0" y="25" text-anchor="middle" class="title">Custom Layout</text>
  <text x="242.0" y="42" text-anchor="middle" class="subtitle">9 Rooms | 1144 sq ft | 48' x 34'</text>
</svg>